<?xml version="1.0" encoding="UTF-8" standalone="no"?>
<!-- Created with Inkscape (http://www.inkscape.org/) -->

<svg
   xmlns:dc="http://purl.org/dc/elements/1.1/"
   xmlns:cc="http://creativecommons.org/ns#"
   xmlns:rdf="http://www.w3.org/1999/02/22-rdf-syntax-ns#"
   xmlns:svg="http://www.w3.org/2000/svg"
   xmlns="http://www.w3.org/2000/svg"
   xmlns:sodipodi="http://sodipodi.sourceforge.net/DTD/sodipodi-0.dtd"
   xmlns:inkscape="http://www.inkscape.org/namespaces/inkscape"
   version="1.1"
   id="svg2"
   xml:space="preserve"
   width="461.33334"
   height="433.77734"
   viewBox="0 0 461.33334 433.77734"
   sodipodi:docname="logoapp.svg"
   inkscape:version="0.92.3 (2405546, 2018-03-11)"><metadata
     id="metadata8"><rdf:RDF><cc:Work
         rdf:about=""><dc:format>image/svg+xml</dc:format><dc:type
           rdf:resource="http://purl.org/dc/dcmitype/StillImage" /><dc:title></dc:title></cc:Work></rdf:RDF></metadata><defs
     id="defs6"><linearGradient
       x1="0"
       y1="0"
       x2="1"
       y2="0"
       gradientUnits="userSpaceOnUse"
       gradientTransform="matrix(224.66447,-211.6478,211.6478,224.66447,88.21875,239.60449)"
       spreadMethod="pad"
       id="linearGradient38"><stop
         style="stop-opacity:1;stop-color:#4593cf"
         offset="0"
         id="stop24" /><stop
         style="stop-opacity:1;stop-color:#3fa5dd"
         offset="0.0923"
         id="stop26" /><stop
         style="stop-opacity:1;stop-color:#49bfe3"
         offset="0.2682"
         id="stop28" /><stop
         style="stop-opacity:1;stop-color:#62c2d4"
         offset="0.3686"
         id="stop30" /><stop
         style="stop-opacity:1;stop-color:#8ad0e2"
         offset="0.6826"
         id="stop32" /><stop
         style="stop-opacity:1;stop-color:#45a5dd"
         offset="0.8508"
         id="stop34" /><stop
         style="stop-opacity:1;stop-color:#45a5dd"
         offset="1"
         id="stop36" /></linearGradient><clipPath
       clipPathUnits="userSpaceOnUse"
       id="clipPath48"><path
         d="M 0,325.333 H 346 V 0 H 0 Z"
         id="path46"
         inkscape:connector-curvature="0" /></clipPath><linearGradient
       x1="0"
       y1="0"
       x2="1"
       y2="0"
       gradientUnits="userSpaceOnUse"
       gradientTransform="matrix(2.9677734,0,0,-2.9677734,239.20605,140.18066)"
       spreadMethod="pad"
       id="linearGradient86"><stop
         style="stop-opacity:1;stop-color:#6afff8"
         offset="0"
         id="stop82" /><stop
         style="stop-opacity:1;stop-color:#33ff99"
         offset="1"
         id="stop84" /></linearGradient><clipPath
       clipPathUnits="userSpaceOnUse"
       id="clipPath96"><path
         d="M 0,325.333 H 346 V 0 H 0 Z"
         id="path94"
         inkscape:connector-curvature="0" /></clipPath><linearGradient
       x1="0"
       y1="0"
       x2="1"
       y2="0"
       gradientUnits="userSpaceOnUse"
       gradientTransform="matrix(2.9677734,0,0,-2.9677734,98.322754,153.2334)"
       spreadMethod="pad"
       id="linearGradient126"><stop
         style="stop-opacity:1;stop-color:#6afff8"
         offset="0"
         id="stop122" /><stop
         style="stop-opacity:1;stop-color:#33ff99"
         offset="1"
         id="stop124" /></linearGradient><linearGradient
       x1="0"
       y1="0"
       x2="1"
       y2="0"
       gradientUnits="userSpaceOnUse"
       gradientTransform="matrix(0.866156,-25.984045,-25.984045,-0.866156,106.33936,182.61523)"
       spreadMethod="pad"
       id="linearGradient156"><stop
         style="stop-opacity:1;stop-color:#009eff"
         offset="0"
         id="stop142" /><stop
         style="stop-opacity:1;stop-color:#009eff"
         offset="0.128079"
         id="stop144" /><stop
         style="stop-opacity:1;stop-color:#00ecf1"
         offset="0.605911"
         id="stop146" /><stop
         style="stop-opacity:1;stop-color:#00bfb7"
         offset="0.876847"
         id="stop148" /><stop
         style="stop-opacity:1;stop-color:#00bfb7"
         offset="0.88052602"
         id="stop150" /><stop
         style="stop-opacity:1;stop-color:#7fffa0"
         offset="0.985222"
         id="stop152" /><stop
         style="stop-opacity:1;stop-color:#7fffa0"
         offset="1"
         id="stop154" /></linearGradient><linearGradient
       x1="0"
       y1="0"
       x2="1"
       y2="0"
       gradientUnits="userSpaceOnUse"
       gradientTransform="matrix(0.8662071,-25.985577,-25.985577,-0.8662071,124.98047,183.2373)"
       spreadMethod="pad"
       id="linearGradient186"><stop
         style="stop-opacity:1;stop-color:#009eff"
         offset="0"
         id="stop172" /><stop
         style="stop-opacity:1;stop-color:#009eff"
         offset="0.128079"
         id="stop174" /><stop
         style="stop-opacity:1;stop-color:#00ecf1"
         offset="0.605911"
         id="stop176" /><stop
         style="stop-opacity:1;stop-color:#00bfb7"
         offset="0.876847"
         id="stop178" /><stop
         style="stop-opacity:1;stop-color:#00bfb7"
         offset="0.88052602"
         id="stop180" /><stop
         style="stop-opacity:1;stop-color:#7fffa0"
         offset="0.985222"
         id="stop182" /><stop
         style="stop-opacity:1;stop-color:#7fffa0"
         offset="1"
         id="stop184" /></linearGradient><linearGradient
       x1="0"
       y1="0"
       x2="1"
       y2="0"
       gradientUnits="userSpaceOnUse"
       gradientTransform="matrix(0.866222,-25.986021,-25.986021,-0.866222,144.84229,183.90039)"
       spreadMethod="pad"
       id="linearGradient216"><stop
         style="stop-opacity:1;stop-color:#009eff"
         offset="0"
         id="stop202" /><stop
         style="stop-opacity:1;stop-color:#009eff"
         offset="0.128079"
         id="stop204" /><stop
         style="stop-opacity:1;stop-color:#00ecf1"
         offset="0.605911"
         id="stop206" /><stop
         style="stop-opacity:1;stop-color:#00bfb7"
         offset="0.876847"
         id="stop208" /><stop
         style="stop-opacity:1;stop-color:#00bfb7"
         offset="0.88052602"
         id="stop210" /><stop
         style="stop-opacity:1;stop-color:#7fffa0"
         offset="0.985222"
         id="stop212" /><stop
         style="stop-opacity:1;stop-color:#7fffa0"
         offset="1"
         id="stop214" /></linearGradient><linearGradient
       x1="0"
       y1="0"
       x2="1"
       y2="0"
       gradientUnits="userSpaceOnUse"
       gradientTransform="matrix(0.8661782,-25.984709,-25.984709,-0.8661782,163.92383,184.53516)"
       spreadMethod="pad"
       id="linearGradient246"><stop
         style="stop-opacity:1;stop-color:#009eff"
         offset="0"
         id="stop232" /><stop
         style="stop-opacity:1;stop-color:#009eff"
         offset="0.128079"
         id="stop234" /><stop
         style="stop-opacity:1;stop-color:#00ecf1"
         offset="0.605911"
         id="stop236" /><stop
         style="stop-opacity:1;stop-color:#00bfb7"
         offset="0.876847"
         id="stop238" /><stop
         style="stop-opacity:1;stop-color:#00bfb7"
         offset="0.88052602"
         id="stop240" /><stop
         style="stop-opacity:1;stop-color:#7fffa0"
         offset="0.985222"
         id="stop242" /><stop
         style="stop-opacity:1;stop-color:#7fffa0"
         offset="1"
         id="stop244" /></linearGradient><linearGradient
       x1="0"
       y1="0"
       x2="1"
       y2="0"
       gradientUnits="userSpaceOnUse"
       gradientTransform="matrix(0.8662413,-25.986601,-25.986601,-0.8662413,183.31689,185.18262)"
       spreadMethod="pad"
       id="linearGradient276"><stop
         style="stop-opacity:1;stop-color:#009eff"
         offset="0"
         id="stop262" /><stop
         style="stop-opacity:1;stop-color:#009eff"
         offset="0.128079"
         id="stop264" /><stop
         style="stop-opacity:1;stop-color:#00ecf1"
         offset="0.605911"
         id="stop266" /><stop
         style="stop-opacity:1;stop-color:#00bfb7"
         offset="0.876847"
         id="stop268" /><stop
         style="stop-opacity:1;stop-color:#00bfb7"
         offset="0.88052602"
         id="stop270" /><stop
         style="stop-opacity:1;stop-color:#7fffa0"
         offset="0.985222"
         id="stop272" /><stop
         style="stop-opacity:1;stop-color:#7fffa0"
         offset="1"
         id="stop274" /></linearGradient><linearGradient
       x1="0"
       y1="0"
       x2="1"
       y2="0"
       gradientUnits="userSpaceOnUse"
       gradientTransform="matrix(0.8662727,-25.987545,-25.987545,-0.8662727,208.01318,186.00684)"
       spreadMethod="pad"
       id="linearGradient306"><stop
         style="stop-opacity:1;stop-color:#009eff"
         offset="0"
         id="stop292" /><stop
         style="stop-opacity:1;stop-color:#009eff"
         offset="0.128079"
         id="stop294" /><stop
         style="stop-opacity:1;stop-color:#00ecf1"
         offset="0.605911"
         id="stop296" /><stop
         style="stop-opacity:1;stop-color:#00bfb7"
         offset="0.876847"
         id="stop298" /><stop
         style="stop-opacity:1;stop-color:#00bfb7"
         offset="0.88052602"
         id="stop300" /><stop
         style="stop-opacity:1;stop-color:#7fffa0"
         offset="0.985222"
         id="stop302" /><stop
         style="stop-opacity:1;stop-color:#7fffa0"
         offset="1"
         id="stop304" /></linearGradient></defs><sodipodi:namedview
     pagecolor="#ffffff"
     bordercolor="#666666"
     borderopacity="1"
     objecttolerance="10"
     gridtolerance="10"
     guidetolerance="10"
     inkscape:pageopacity="0"
     inkscape:pageshadow="2"
     inkscape:window-width="640"
     inkscape:window-height="480"
     id="namedview4"
     showgrid="false"
     inkscape:zoom="0.54405792"
     inkscape:cx="230.66667"
     inkscape:cy="216.88867"
     inkscape:window-x="0"
     inkscape:window-y="0"
     inkscape:window-maximized="0"
     inkscape:current-layer="g10" /><g
     id="g10"
     inkscape:groupmode="layer"
     inkscape:label="logoapp"
     transform="matrix(1.3333333,0,0,-1.3333333,0,433.77733)"><g
       id="g12"><g
         id="g14"><g
           id="g20"><g
             id="g22"><path
               d="m 15.676,162.582 c 0,-85.223 69.086,-154.32 154.325,-154.32 v 0 c 85.238,0 154.323,69.097 154.323,154.32 v 0 c 0,85.241 -69.085,154.338 -154.323,154.338 v 0 C 84.762,316.92 15.676,247.823 15.676,162.582"
               style="fill:url(#linearGradient38);stroke:none"
               id="path40"
               inkscape:connector-curvature="0" /></g></g></g></g><g
       id="g42"><g
         id="g44"
         clip-path="url(#clipPath48)"><g
           id="g50"
           transform="translate(267.6582,195.7935)"><path
             d="m 0,0 h -64.447 v 62.484 h -66.422 V 0 h -66.421 v -66.42 h 66.421 v -68.394 h 66.422 v 68.394 l 64.447,0 z"
             style="fill:#ffffff;fill-opacity:1;fill-rule:nonzero;stroke:none"
             id="path52"
             inkscape:connector-curvature="0" /></g><g
           id="g54"
           transform="translate(204.2505,143.3857)"><path
             d="m 0,0 v 12.943 h 1.707 v -1.999 c 0.525,0.826 1.169,1.447 1.933,1.86 0.764,0.414 1.642,0.621 2.634,0.621 1.46,0 2.595,-0.409 3.407,-1.227 C 10.493,11.381 10.9,10.243 10.9,8.784 V 0 H 9.105 v 7.982 c 0,1.293 -0.27,2.254 -0.81,2.881 -0.54,0.628 -1.374,0.942 -2.503,0.942 -1.371,0 -2.38,-0.407 -3.027,-1.218 C 2.118,9.773 1.795,8.498 1.795,6.756 V 0 Z"
             style="fill:#333333;fill-opacity:1;fill-rule:nonzero;stroke:none"
             id="path56"
             inkscape:connector-curvature="0" /></g><g
           id="g58"
           transform="translate(222.082,151.3389)"><path
             d="M 0,0 H 8.04 C 7.952,1.187 7.559,2.104 6.858,2.758 6.158,3.408 5.209,3.734 4.013,3.734 2.923,3.734 2.012,3.394 1.277,2.713 0.542,2.032 0.117,1.128 0,0 m -2.057,-1.62 c 0,2.12 0.581,3.832 1.744,5.136 1.162,1.304 2.682,1.956 4.559,1.956 1.79,0 3.225,-0.602 4.305,-1.803 C 9.63,2.468 10.17,0.864 10.17,-1.139 V -1.532 H -0.117 c 0.049,-1.674 0.467,-2.988 1.256,-3.941 0.787,-0.952 1.843,-1.429 3.166,-1.429 0.953,0 1.789,0.257 2.509,0.774 0.72,0.515 1.318,1.293 1.795,2.334 l 1.649,-0.905 C 9.596,-6.012 8.786,-6.978 7.829,-7.596 6.87,-8.212 5.696,-8.521 4.305,-8.521 c -1.897,0 -3.431,0.634 -4.604,1.904 -1.172,1.269 -1.758,2.934 -1.758,4.997"
             style="fill:#333333;fill-opacity:1;fill-rule:nonzero;stroke:none"
             id="path60"
             inkscape:connector-curvature="0" /></g><g
           id="g62"
           transform="translate(235.2744,154.7969)"><path
             d="M 0,0 V 1.532 H 2.408 V 6.844 H 4.144 V 1.532 H 6.77 V 0 H 4.144 V -11.411 H 2.408 L 2.408,0 Z"
             style="fill:#333333;fill-opacity:1;fill-rule:nonzero;stroke:none"
             id="path64"
             inkscape:connector-curvature="0" /></g><g
           id="g66"
           transform="translate(99.957,153.1777)"><path
             d="m 0,0 h 35.328 l 5.005,5.491 4.696,-5.177 41.827,0.289 c 8.938,-27.383 8.915,-27.448 8.938,-27.383 0.025,0.064 8.649,13.725 8.649,13.725 h 36.44"
             style="fill:none;stroke:#333333;stroke-width:1;stroke-linecap:butt;stroke-linejoin:miter;stroke-miterlimit:10;stroke-dasharray:none;stroke-opacity:1"
             id="path68"
             inkscape:connector-curvature="0" /></g></g></g><g
       id="g70"><g
         id="g72"><g
           id="g78"><g
             id="g80"><path
               d="m 239.206,140.181 c 0,-0.819 0.664,-1.484 1.484,-1.484 v 0 c 0.819,0 1.484,0.665 1.484,1.484 v 0 c 0,0.821 -0.665,1.483 -1.484,1.483 v 0 c -0.82,0 -1.484,-0.662 -1.484,-1.483"
               style="fill:url(#linearGradient86);stroke:none"
               id="path88"
               inkscape:connector-curvature="0" /></g></g></g></g><g
       id="g90"><g
         id="g92"
         clip-path="url(#clipPath96)"><g
           id="g98"
           transform="translate(197.0854,126.8887)"><path
             d="m 0,0 c 0,-0.819 -0.664,-1.484 -1.483,-1.484 -0.82,0 -1.485,0.665 -1.485,1.484 0,0.82 0.665,1.484 1.485,1.484 C -0.664,1.484 0,0.82 0,0"
             style="fill:#231f20;fill-opacity:1;fill-rule:nonzero;stroke:none"
             id="path100"
             inkscape:connector-curvature="0" /></g><g
           id="g102"
           transform="translate(188.1489,154.0811)"><path
             d="m 0,0 c 0,-0.818 -0.665,-1.482 -1.483,-1.482 -0.82,0 -1.485,0.664 -1.485,1.482 0,0.82 0.665,1.484 1.485,1.484 C -0.665,1.484 0,0.82 0,0"
             style="fill:#00b4e2;fill-opacity:1;fill-rule:nonzero;stroke:none"
             id="path104"
             inkscape:connector-curvature="0" /></g><g
           id="g106"
           transform="translate(141.3848,158.748)"><path
             d="m 0,0 c 0,-0.699 -0.567,-1.269 -1.268,-1.269 -0.699,0 -1.267,0.57 -1.267,1.269 0,0.7 0.568,1.269 1.267,1.269 C -0.567,1.269 0,0.7 0,0"
             style="fill:#00ccc2;fill-opacity:1;fill-rule:nonzero;stroke:none"
             id="path108"
             inkscape:connector-curvature="0" /></g></g></g><g
       id="g110"><g
         id="g112"><g
           id="g118"><g
             id="g120"><path
               d="m 98.323,153.234 c 0,-0.82 0.663,-1.484 1.483,-1.484 v 0 c 0.82,0 1.484,0.664 1.484,1.484 v 0 c 0,0.82 -0.664,1.484 -1.484,1.484 v 0 c -0.82,0 -1.483,-0.664 -1.483,-1.484"
               style="fill:url(#linearGradient126);stroke:none"
               id="path128"
               inkscape:connector-curvature="0" /></g></g></g></g><g
       id="g130"><g
         id="g132"><g
           id="g138"><g
             id="g140"><path
               d="m 99.956,187.974 v -25.439 h 2.311 v 11.451 h 2.685 c 2.94,0 5.089,0.562 6.448,1.688 v 0 c 1.361,1.125 2.041,2.893 2.041,5.305 v 0 c 0,1.227 -0.221,2.343 -0.663,3.351 v 0 c -0.441,1.006 -1.063,1.799 -1.864,2.377 v 0 c -0.639,0.453 -1.391,0.776 -2.256,0.973 v 0 c -0.866,0.196 -2.216,0.294 -4.051,0.294 v 0 z m 2.311,-1.998 h 1.581 c 1.853,0 3.168,-0.105 3.944,-0.313 v 0 c 0.777,-0.209 1.392,-0.569 1.842,-1.079 v 0 c 0.441,-0.5 0.771,-1.065 0.991,-1.699 v 0 c 0.22,-0.631 0.33,-1.324 0.33,-2.08 v 0 c 0,-1.786 -0.484,-3.036 -1.45,-3.749 v 0 c -0.968,-0.715 -2.853,-1.073 -5.657,-1.073 v 0 h -1.581 z"
               style="fill:url(#linearGradient156);stroke:none"
               id="path158"
               inkscape:connector-curvature="0" /></g></g></g></g><g
       id="g160"><g
         id="g162"><g
           id="g168"><g
             id="g170"><path
               d="m 119.003,189.469 v -26.934 h 2.138 v 8.045 c 0,2.073 0.384,3.593 1.155,4.562 v 0 c 0.77,0.966 1.972,1.45 3.606,1.45 v 0 c 1.343,0 2.337,-0.374 2.98,-1.12 v 0 c 0.643,-0.749 0.965,-1.892 0.965,-3.432 v 0 -9.505 h 2.137 v 10.46 c 0,1.737 -0.484,3.094 -1.452,4.066 v 0 c -0.966,0.974 -2.319,1.46 -4.057,1.46 v 0 c -1.182,0 -2.227,-0.246 -3.136,-0.739 v 0 c -0.91,-0.492 -1.677,-1.23 -2.303,-2.215 v 0 13.902 z"
               style="fill:url(#linearGradient186);stroke:none"
               id="path188"
               inkscape:connector-curvature="0" /></g></g></g></g><g
       id="g190"><g
         id="g192"><g
           id="g198"><g
             id="g200"><path
               d="m 139.719,176.179 c -1.333,-1.561 -1.999,-3.579 -1.999,-6.051 v 0 c 0,-2.485 0.675,-4.486 2.025,-6 v 0 c 1.349,-1.513 3.13,-2.272 5.343,-2.272 v 0 c 1.251,0 2.337,0.298 3.258,0.895 v 0 c 0.921,0.595 1.636,1.461 2.147,2.593 v 0 -2.809 h 2.136 v 15.412 h -2.136 v -2.845 c -0.522,1.122 -1.26,1.972 -2.216,2.552 v 0 c -0.956,0.577 -2.088,0.867 -3.398,0.867 v 0 c -2.108,0 -3.828,-0.781 -5.16,-2.342 m 1.729,-10.712 c -0.899,1.074 -1.348,2.605 -1.348,4.592 v 0 c 0,2.01 0.47,3.591 1.408,4.739 v 0 c 0.939,1.149 2.213,1.724 3.823,1.724 v 0 c 1.61,0 2.878,-0.54 3.805,-1.62 v 0 c 0.927,-1.079 1.391,-2.561 1.391,-4.444 v 0 c 0,-2.056 -0.466,-3.672 -1.399,-4.845 v 0 c -0.933,-1.171 -2.21,-1.758 -3.832,-1.758 v 0 c -1.668,0 -2.951,0.536 -3.848,1.612"
               style="fill:url(#linearGradient216);stroke:none"
               id="path218"
               inkscape:connector-curvature="0" /></g></g></g></g><g
       id="g220"><g
         id="g222"><g
           id="g228"><g
             id="g230"><path
               d="m 164.387,177.694 c -0.759,-0.551 -1.532,-1.487 -2.32,-2.809 v 0 3.062 h -2.137 v -15.412 h 2.137 v 7.595 c 0,1.8 0.455,3.304 1.364,4.511 v 0 c 0.91,1.208 2.008,1.812 3.294,1.812 v 0 c 0.23,0 0.472,-0.023 0.721,-0.069 v 0 c 0.248,-0.047 0.49,-0.105 0.721,-0.174 v 0 l 0.696,1.986 c -0.303,0.103 -0.607,0.183 -0.913,0.24 v 0 c -0.308,0.056 -0.612,0.085 -0.913,0.085 v 0 c -1.008,0 -1.891,-0.276 -2.65,-0.827"
               style="fill:url(#linearGradient246);stroke:none"
               id="path248"
               inkscape:connector-curvature="0" /></g></g></g></g><g
       id="g250"><g
         id="g252"><g
           id="g258"><g
             id="g260"><path
               d="m 186.72,177.773 c -0.892,-0.498 -1.644,-1.252 -2.256,-2.26 v 0 c -0.43,0.984 -1.044,1.733 -1.839,2.243 v 0 c -0.795,0.511 -1.757,0.765 -2.883,0.765 v 0 c -1.089,0 -2.051,-0.252 -2.885,-0.757 v 0 c -0.834,-0.504 -1.506,-1.238 -2.015,-2.2 v 0 2.383 h -2.137 v -15.412 h 2.137 v 8.135 c 0,2.066 0.352,3.588 1.06,4.564 v 0 c 0.706,0.974 1.812,1.463 3.319,1.463 v 0 c 1.239,0 2.154,-0.366 2.745,-1.098 v 0 c 0.591,-0.731 0.886,-1.887 0.886,-3.466 v 0 -9.598 h 2.138 v 8.135 c 0,2.089 0.343,3.617 1.031,4.581 v 0 c 0.689,0.964 1.765,1.446 3.234,1.446 v 0 c 1.225,0 2.147,-0.383 2.765,-1.15 v 0 c 0.62,-0.767 0.928,-1.905 0.928,-3.414 v 0 -9.598 h 2.138 v 10.426 c 0,1.725 -0.47,3.083 -1.406,4.075 v 0 c -0.938,0.99 -2.221,1.485 -3.852,1.485 v 0 c -1.181,0 -2.218,-0.25 -3.108,-0.748"
               style="fill:url(#linearGradient276);stroke:none"
               id="path278"
               inkscape:connector-curvature="0" /></g></g></g></g><g
       id="g280"><g
         id="g282"><g
           id="g288"><g
             id="g290"><path
               d="m 202.96,176.179 c -1.334,-1.561 -1.999,-3.579 -1.999,-6.051 v 0 c 0,-2.485 0.674,-4.486 2.024,-6 v 0 c 1.349,-1.513 3.13,-2.272 5.343,-2.272 v 0 c 1.251,0 2.338,0.298 3.259,0.895 v 0 c 0.921,0.595 1.636,1.461 2.146,2.593 v 0 -2.809 h 2.137 v 15.412 h -2.137 v -2.845 c -0.521,1.122 -1.26,1.972 -2.215,2.552 v 0 c -0.956,0.577 -2.089,0.867 -3.398,0.867 v 0 c -2.108,0 -3.828,-0.781 -5.16,-2.342 m 1.729,-10.712 c -0.899,1.074 -1.348,2.605 -1.348,4.592 v 0 c 0,2.01 0.469,3.591 1.408,4.739 v 0 c 0.939,1.149 2.212,1.724 3.823,1.724 v 0 c 1.61,0 2.879,-0.54 3.806,-1.62 v 0 c 0.926,-1.079 1.39,-2.561 1.39,-4.444 v 0 c 0,-2.056 -0.467,-3.672 -1.399,-4.845 v 0 c -0.933,-1.171 -2.21,-1.758 -3.832,-1.758 v 0 c -1.668,0 -2.951,0.536 -3.848,1.612"
               style="fill:url(#linearGradient306);stroke:none"
               id="path308"
               inkscape:connector-curvature="0" /></g></g></g></g></g></svg>