<?xml version="1.0" encoding="utf-8"?>
<!-- Generator: Adobe Illustrator 16.0.0, SVG Export Plug-In . SVG Version: 6.00 Build 0)  -->
<svg version="1.2" baseProfile="tiny" xmlns="http://www.w3.org/2000/svg" xmlns:xlink="http://www.w3.org/1999/xlink" x="0px"
	 y="0px" width="339.5px" height="155.5px" viewBox="0 0 339.5 155.5" xml:space="preserve">
<g id="Net">
	<g id="text_1_">
		<g>
			<path fill="#505150" d="M247.915,111.305V81.42h3.941v4.615c1.213-1.908,2.701-3.34,4.465-4.295
				c1.763-0.955,3.79-1.432,6.081-1.432c3.37,0,5.992,0.943,7.867,2.83s2.813,4.514,2.813,7.883v20.283h-4.145v-18.43
				c0-2.986-0.623-5.205-1.87-6.654c-1.246-1.449-3.173-2.173-5.778-2.173c-3.166,0-5.497,0.938-6.99,2.813
				c-1.494,1.875-2.24,4.823-2.24,8.844v15.6H247.915z"/>
			<path fill="#505150" d="M284.339,96.682c0-4.896,1.342-8.849,4.026-11.859c2.684-3.01,6.193-4.514,10.528-4.514
				c4.133,0,7.445,1.387,9.939,4.16c2.492,2.774,3.739,6.475,3.739,11.102v0.91h-23.753c0.112,3.863,1.078,6.895,2.898,9.096
				c1.818,2.202,4.256,3.303,7.311,3.303c2.201,0,4.133-0.596,5.795-1.786s3.043-2.987,4.145-5.391l3.807,2.089
				c-1.527,3.032-3.397,5.262-5.609,6.688c-2.213,1.426-4.925,2.14-8.137,2.14c-4.38,0-7.923-1.466-10.63-4.397
				C285.691,105.291,284.339,101.444,284.339,96.682z M289.089,92.942h18.564c-0.202-2.74-1.111-4.862-2.729-6.368
				c-1.617-1.504-3.808-2.257-6.57-2.257c-2.516,0-4.621,0.786-6.317,2.358S289.358,90.337,289.089,92.942z"/>
			<path fill="#505150" d="M319.55,84.957V81.42h5.56V69.156h4.009V81.42h6.064v3.537h-6.064v26.348h-4.009V84.957H319.55z"/>
		</g>
	</g>
</g>
<g id="Forme_7_1_">
	<path id="barre" fill="none" stroke="#333333" stroke-miterlimit="10" d="M7.098,88.697h81.574
		c11.555-12.682,11.555-12.682,11.555-12.682l0,0c10.845,11.953,10.845,11.953,10.845,11.953c96.58-0.664,96.58-0.664,96.58-0.664
		c20.639,63.227,20.583,63.375,20.639,63.227s19.971-31.693,19.971-31.693h84.14"/>
	<g id="ronds">
		<linearGradient id="_x35__1_" gradientUnits="userSpaceOnUse" x1="328.6289" y1="118.7051" x2="335.4805" y2="118.7051">
			<stop  offset="0" style="stop-color:#6AFFF8"/>
			<stop  offset="1" style="stop-color:#33FF99"/>
		</linearGradient>
		<circle id="_x35_" fill="url(#_x35__1_)" cx="332.055" cy="118.705" r="3.426"/>
		<circle id="_x34_" fill="#231F20" cx="227.944" cy="149.397" r="3.427"/>
		<path id="_x33_" fill="#00B4E2" d="M210.736,86.607c0,1.893-1.535,3.427-3.424,3.427c-1.895,0-3.429-1.534-3.429-3.427
			s1.534-3.427,3.429-3.427C209.201,83.181,210.736,84.715,210.736,86.607z"/>
		<circle id="_x32_" fill="#00CCC2" cx="99.831" cy="75.834" r="2.926"/>
		<linearGradient id="_x31__1_" gradientUnits="userSpaceOnUse" x1="3.3252" y1="88.5645" x2="10.1777" y2="88.5645">
			<stop  offset="0" style="stop-color:#6AFFF8"/>
			<stop  offset="1" style="stop-color:#33FF99"/>
		</linearGradient>
		<circle id="_x31_" fill="url(#_x31__1_)" cx="6.751" cy="88.565" r="3.426"/>
	</g>
</g>
<g id="pharma_1_">
	<g id="text">
		<linearGradient id="SVGID_1_" gradientUnits="userSpaceOnUse" x1="25.7456" y1="7.5669" x2="25.7456" y2="66.3086">
			<stop  offset="0" style="stop-color:#A5D286"/>
			<stop  offset="1" style="stop-color:#009EFD"/>
		</linearGradient>
		<path fill="url(#SVGID_1_)" d="M10.178,66.309V7.567h10.741c4.237,0,7.355,0.228,9.353,0.682c1.998,0.454,3.735,1.202,5.21,2.244
			c1.85,1.336,3.285,3.166,4.304,5.49c1.02,2.325,1.529,4.903,1.529,7.734c0,5.57-1.57,9.654-4.709,12.252
			c-3.14,2.599-8.103,3.897-14.892,3.897h-6.199v26.442H10.178z M15.514,35.252h3.651c6.473,0,10.827-0.823,13.061-2.472
			c2.233-1.647,3.35-4.535,3.35-8.662c0-1.741-0.255-3.342-0.762-4.803c-0.509-1.46-1.271-2.767-2.287-3.919
			c-1.043-1.179-2.461-2.009-4.253-2.492c-1.793-0.482-4.829-0.723-9.108-0.723h-3.651V35.252z"/>
		<linearGradient id="SVGID_2_" gradientUnits="userSpaceOnUse" x1="69.1445" y1="4.1162" x2="69.1445" y2="66.3086">
			<stop  offset="0" style="stop-color:#A5D286"/>
			<stop  offset="1" style="stop-color:#009EFD"/>
		</linearGradient>
		<path fill="url(#SVGID_2_)" d="M54.158,66.309V4.116h4.695v32.099c1.444-2.273,3.216-3.978,5.316-5.116
			c2.1-1.136,4.514-1.705,7.242-1.705c4.014,0,7.137,1.124,9.37,3.37c2.233,2.247,3.35,5.377,3.35,9.389v24.155h-4.935V44.361
			c0-3.557-0.742-6.199-2.227-7.925c-1.484-1.725-3.778-2.588-6.881-2.588c-3.772,0-6.547,1.118-8.326,3.351
			c-1.779,2.234-2.668,5.745-2.668,10.533v18.577H54.158z"/>
		<linearGradient id="SVGID_3_" gradientUnits="userSpaceOnUse" x1="114.5898" y1="29.3945" x2="114.5898" y2="67.8735">
			<stop  offset="0" style="stop-color:#A5D286"/>
			<stop  offset="1" style="stop-color:#009EFD"/>
		</linearGradient>
		<path fill="url(#SVGID_3_)" d="M97.376,48.774c0-5.709,1.538-10.367,4.614-13.972c3.076-3.605,7.048-5.408,11.917-5.408
			c3.022,0,5.638,0.668,7.844,2.004c2.207,1.337,3.912,3.3,5.116,5.892v-6.571h4.936v35.59h-4.936v-6.49
			c-1.177,2.618-2.829,4.616-4.955,5.991c-2.126,1.376-4.634,2.064-7.523,2.064c-5.11,0-9.223-1.748-12.338-5.245
			C98.935,59.131,97.376,54.513,97.376,48.774z M102.874,48.935c0,4.588,1.036,8.123,3.11,10.604
			c2.072,2.481,5.036,3.721,8.887,3.721c3.745,0,6.694-1.354,8.848-4.062c2.152-2.707,3.23-6.436,3.23-11.184
			c0-4.349-1.07-7.77-3.21-10.264c-2.141-2.494-5.07-3.742-8.787-3.742c-3.719,0-6.661,1.327-8.828,3.982
			C103.957,40.645,102.874,44.292,102.874,48.935z"/>
		<linearGradient id="SVGID_4_" gradientUnits="userSpaceOnUse" x1="158.9722" y1="29.3945" x2="158.9722" y2="66.3086">
			<stop  offset="0" style="stop-color:#A5D286"/>
			<stop  offset="1" style="stop-color:#009EFD"/>
		</linearGradient>
		<path fill="url(#SVGID_4_)" d="M148.66,66.309v-35.59h4.936v7.071c1.818-3.051,3.604-5.212,5.356-6.485
			c1.751-1.273,3.792-1.91,6.12-1.91c0.694,0,1.396,0.065,2.106,0.197c0.708,0.132,1.41,0.315,2.106,0.552l-1.605,4.587
			c-0.536-0.161-1.091-0.294-1.665-0.401c-0.576-0.106-1.132-0.16-1.666-0.16c-2.969,0-5.504,1.395-7.604,4.183
			c-2.1,2.789-3.149,6.262-3.149,10.418v17.538H148.66z"/>
		<linearGradient id="SVGID_5_" gradientUnits="userSpaceOnUse" x1="203.9961" y1="29.3945" x2="203.9961" y2="66.3086">
			<stop  offset="0" style="stop-color:#A5D286"/>
			<stop  offset="1" style="stop-color:#009EFD"/>
		</linearGradient>
		<path fill="url(#SVGID_5_)" d="M178.156,66.309v-35.59h4.935v5.503c1.176-2.223,2.729-3.916,4.654-5.081
			c1.926-1.164,4.145-1.746,6.661-1.746c2.602,0,4.82,0.589,6.658,1.767c1.836,1.178,3.252,2.905,4.245,5.182
			c1.414-2.329,3.151-4.069,5.21-5.221c2.057-1.151,4.448-1.727,7.175-1.727c3.766,0,6.73,1.144,8.896,3.431
			c2.162,2.287,3.246,5.424,3.246,9.409v24.074H224.9V44.146c0-3.486-0.714-6.113-2.143-7.883c-1.429-1.77-3.558-2.655-6.386-2.655
			c-3.391,0-5.878,1.113-7.468,3.338c-1.589,2.226-2.381,5.752-2.381,10.579v18.784h-4.936V44.146c0-3.646-0.682-6.314-2.046-8.004
			c-1.364-1.688-3.479-2.534-6.34-2.534c-3.478,0-6.032,1.126-7.663,3.378c-1.633,2.253-2.448,5.766-2.448,10.539v18.784H178.156z"
			/>
		<linearGradient id="SVGID_6_" gradientUnits="userSpaceOnUse" x1="260.6152" y1="29.3945" x2="260.6152" y2="67.8735">
			<stop  offset="0" style="stop-color:#A5D286"/>
			<stop  offset="1" style="stop-color:#009EFD"/>
		</linearGradient>
		<path fill="url(#SVGID_6_)" d="M243.401,48.774c0-5.709,1.537-10.367,4.614-13.972c3.076-3.605,7.048-5.408,11.917-5.408
			c3.021,0,5.638,0.668,7.845,2.004c2.206,1.337,3.912,3.3,5.115,5.892v-6.571h4.936v35.59h-4.936v-6.49
			c-1.178,2.618-2.828,4.616-4.955,5.991c-2.127,1.376-4.635,2.064-7.523,2.064c-5.109,0-9.223-1.748-12.338-5.245
			C244.958,59.131,243.401,54.513,243.401,48.774z M248.898,48.935c0,4.588,1.035,8.123,3.109,10.604
			c2.073,2.481,5.036,3.721,8.888,3.721c3.744,0,6.693-1.354,8.848-4.062c2.152-2.707,3.229-6.436,3.229-11.184
			c0-4.349-1.071-7.77-3.21-10.264c-2.141-2.494-5.069-3.742-8.787-3.742c-3.719,0-6.66,1.327-8.827,3.982
			C249.981,40.645,248.898,44.292,248.898,48.935z"/>
	</g>
	<image width="513" height="490" xlink:href="308D22FD.png"  transform="matrix(1 0 0 1 368.5 -126)">
	</image>
</g>
</svg>
