<?xml version="1.0" encoding="UTF-8" standalone="no"?>
<!-- Created with Inkscape (http://www.inkscape.org/) -->

<svg
   xmlns:dc="http://purl.org/dc/elements/1.1/"
   xmlns:cc="http://creativecommons.org/ns#"
   xmlns:rdf="http://www.w3.org/1999/02/22-rdf-syntax-ns#"
   xmlns:svg="http://www.w3.org/2000/svg"
   xmlns="http://www.w3.org/2000/svg"
   xmlns:sodipodi="http://sodipodi.sourceforge.net/DTD/sodipodi-0.dtd"
   xmlns:inkscape="http://www.inkscape.org/namespaces/inkscape"
   version="1.1"
   id="svg2"
   xml:space="preserve"
   width="452.66666"
   height="207.33333"
   viewBox="0 0 452.66666 207.33333"
   sodipodi:docname="pharmanetlogo1.svg"
   inkscape:version="0.92.3 (2405546, 2018-03-11)"><metadata
     id="metadata8"><rdf:RDF><cc:Work
         rdf:about=""><dc:format>image/svg+xml</dc:format><dc:type
           rdf:resource="http://purl.org/dc/dcmitype/StillImage" /><dc:title></dc:title></cc:Work></rdf:RDF></metadata><defs
     id="defs6"><clipPath
       clipPathUnits="userSpaceOnUse"
       id="clipPath18"><path
         d="M 0,155.5 H 339.5 V 0 H 0 Z"
         id="path16"
         inkscape:connector-curvature="0" /></clipPath><clipPath
       clipPathUnits="userSpaceOnUse"
       id="clipPath38"><path
         d="M 0,155.5 H 339.5 V 0 H 0 Z"
         id="path36"
         inkscape:connector-curvature="0" /></clipPath><linearGradient
       x1="0"
       y1="0"
       x2="1"
       y2="0"
       gradientUnits="userSpaceOnUse"
       gradientTransform="matrix(6.8515625,0,0,-6.8515625,328.62891,36.794922)"
       spreadMethod="pad"
       id="linearGradient60"><stop
         style="stop-opacity:1;stop-color:#6afff8"
         offset="0"
         id="stop56" /><stop
         style="stop-opacity:1;stop-color:#33ff99"
         offset="1"
         id="stop58" /></linearGradient><clipPath
       clipPathUnits="userSpaceOnUse"
       id="clipPath70"><path
         d="M 0,155.5 H 339.5 V 0 H 0 Z"
         id="path68"
         inkscape:connector-curvature="0" /></clipPath><linearGradient
       x1="0"
       y1="0"
       x2="1"
       y2="0"
       gradientUnits="userSpaceOnUse"
       gradientTransform="matrix(6.8525391,0,0,-6.8525391,3.3251953,66.935547)"
       spreadMethod="pad"
       id="linearGradient100"><stop
         style="stop-opacity:1;stop-color:#6afff8"
         offset="0"
         id="stop96" /><stop
         style="stop-opacity:1;stop-color:#33ff99"
         offset="1"
         id="stop98" /></linearGradient><linearGradient
       x1="0"
       y1="0"
       x2="1"
       y2="0"
       gradientUnits="userSpaceOnUse"
       gradientTransform="matrix(2.0000062,-60,-60,-2.0000062,21.834473,134.77832)"
       spreadMethod="pad"
       id="linearGradient130"><stop
         style="stop-opacity:1;stop-color:#009eff"
         offset="0"
         id="stop116" /><stop
         style="stop-opacity:1;stop-color:#009eff"
         offset="0.128079"
         id="stop118" /><stop
         style="stop-opacity:1;stop-color:#00ecf1"
         offset="0.605911"
         id="stop120" /><stop
         style="stop-opacity:1;stop-color:#00bfb7"
         offset="0.876847"
         id="stop122" /><stop
         style="stop-opacity:1;stop-color:#00bfb7"
         offset="0.88052602"
         id="stop124" /><stop
         style="stop-opacity:1;stop-color:#7fffa0"
         offset="0.985222"
         id="stop126" /><stop
         style="stop-opacity:1;stop-color:#7fffa0"
         offset="1"
         id="stop128" /></linearGradient><linearGradient
       x1="0"
       y1="0"
       x2="1"
       y2="0"
       gradientUnits="userSpaceOnUse"
       gradientTransform="matrix(2.0000062,-60,-60,-2.0000062,64.877441,136.21289)"
       spreadMethod="pad"
       id="linearGradient160"><stop
         style="stop-opacity:1;stop-color:#009eff"
         offset="0"
         id="stop146" /><stop
         style="stop-opacity:1;stop-color:#009eff"
         offset="0.128079"
         id="stop148" /><stop
         style="stop-opacity:1;stop-color:#00ecf1"
         offset="0.605911"
         id="stop150" /><stop
         style="stop-opacity:1;stop-color:#00bfb7"
         offset="0.876847"
         id="stop152" /><stop
         style="stop-opacity:1;stop-color:#00bfb7"
         offset="0.88052602"
         id="stop154" /><stop
         style="stop-opacity:1;stop-color:#7fffa0"
         offset="0.985222"
         id="stop156" /><stop
         style="stop-opacity:1;stop-color:#7fffa0"
         offset="1"
         id="stop158" /></linearGradient><linearGradient
       x1="0"
       y1="0"
       x2="1"
       y2="0"
       gradientUnits="userSpaceOnUse"
       gradientTransform="matrix(2.000006,-59.999996,-59.999996,-2.000006,110.74023,137.7417)"
       spreadMethod="pad"
       id="linearGradient190"><stop
         style="stop-opacity:1;stop-color:#009eff"
         offset="0"
         id="stop176" /><stop
         style="stop-opacity:1;stop-color:#009eff"
         offset="0.128079"
         id="stop178" /><stop
         style="stop-opacity:1;stop-color:#00ecf1"
         offset="0.605911"
         id="stop180" /><stop
         style="stop-opacity:1;stop-color:#00bfb7"
         offset="0.876847"
         id="stop182" /><stop
         style="stop-opacity:1;stop-color:#00bfb7"
         offset="0.88052602"
         id="stop184" /><stop
         style="stop-opacity:1;stop-color:#7fffa0"
         offset="0.985222"
         id="stop186" /><stop
         style="stop-opacity:1;stop-color:#7fffa0"
         offset="1"
         id="stop188" /></linearGradient><linearGradient
       x1="0"
       y1="0"
       x2="1"
       y2="0"
       gradientUnits="userSpaceOnUse"
       gradientTransform="matrix(2.0000062,-60,-60,-2.0000062,154.79932,139.21045)"
       spreadMethod="pad"
       id="linearGradient220"><stop
         style="stop-opacity:1;stop-color:#009eff"
         offset="0"
         id="stop206" /><stop
         style="stop-opacity:1;stop-color:#009eff"
         offset="0.128079"
         id="stop208" /><stop
         style="stop-opacity:1;stop-color:#00ecf1"
         offset="0.605911"
         id="stop210" /><stop
         style="stop-opacity:1;stop-color:#00bfb7"
         offset="0.876847"
         id="stop212" /><stop
         style="stop-opacity:1;stop-color:#00bfb7"
         offset="0.88052602"
         id="stop214" /><stop
         style="stop-opacity:1;stop-color:#7fffa0"
         offset="0.985222"
         id="stop216" /><stop
         style="stop-opacity:1;stop-color:#7fffa0"
         offset="1"
         id="stop218" /></linearGradient><linearGradient
       x1="0"
       y1="0"
       x2="1"
       y2="0"
       gradientUnits="userSpaceOnUse"
       gradientTransform="matrix(2.0000062,-60,-60,-2.0000062,199.57812,140.70312)"
       spreadMethod="pad"
       id="linearGradient250"><stop
         style="stop-opacity:1;stop-color:#009eff"
         offset="0"
         id="stop236" /><stop
         style="stop-opacity:1;stop-color:#009eff"
         offset="0.128079"
         id="stop238" /><stop
         style="stop-opacity:1;stop-color:#00ecf1"
         offset="0.605911"
         id="stop240" /><stop
         style="stop-opacity:1;stop-color:#00bfb7"
         offset="0.876847"
         id="stop242" /><stop
         style="stop-opacity:1;stop-color:#00bfb7"
         offset="0.88052602"
         id="stop244" /><stop
         style="stop-opacity:1;stop-color:#7fffa0"
         offset="0.985222"
         id="stop246" /><stop
         style="stop-opacity:1;stop-color:#7fffa0"
         offset="1"
         id="stop248" /></linearGradient><linearGradient
       x1="0"
       y1="0"
       x2="1"
       y2="0"
       gradientUnits="userSpaceOnUse"
       gradientTransform="matrix(2.000006,-59.999996,-59.999996,-2.000006,256.60254,142.60352)"
       spreadMethod="pad"
       id="linearGradient280"><stop
         style="stop-opacity:1;stop-color:#009eff"
         offset="0"
         id="stop266" /><stop
         style="stop-opacity:1;stop-color:#009eff"
         offset="0.128079"
         id="stop268" /><stop
         style="stop-opacity:1;stop-color:#00ecf1"
         offset="0.605911"
         id="stop270" /><stop
         style="stop-opacity:1;stop-color:#00bfb7"
         offset="0.876847"
         id="stop272" /><stop
         style="stop-opacity:1;stop-color:#00bfb7"
         offset="0.88052602"
         id="stop274" /><stop
         style="stop-opacity:1;stop-color:#7fffa0"
         offset="0.985222"
         id="stop276" /><stop
         style="stop-opacity:1;stop-color:#7fffa0"
         offset="1"
         id="stop278" /></linearGradient></defs><sodipodi:namedview
     pagecolor="#ffffff"
     bordercolor="#666666"
     borderopacity="1"
     objecttolerance="10"
     gridtolerance="10"
     guidetolerance="10"
     inkscape:pageopacity="0"
     inkscape:pageshadow="2"
     inkscape:window-width="640"
     inkscape:window-height="480"
     id="namedview4"
     showgrid="false"
     inkscape:zoom="0.79970547"
     inkscape:cx="226.33333"
     inkscape:cy="103.66666"
     inkscape:window-x="-8"
     inkscape:window-y="-8"
     inkscape:window-maximized="1"
     inkscape:current-layer="g10" /><g
     id="g10"
     inkscape:groupmode="layer"
     inkscape:label="pharmanetlogo1"
     transform="matrix(1.3333333,0,0,-1.3333333,0,207.33333)"><g
       id="g12"><g
         id="g14"
         clip-path="url(#clipPath18)"><g
           id="g20"
           transform="translate(247.915,44.1953)"><path
             d="M 0,0 V 29.885 H 3.941 V 25.27 c 1.213,1.908 2.702,3.339 4.465,4.294 1.763,0.956 3.79,1.432 6.081,1.432 3.37,0 5.992,-0.943 7.867,-2.83 1.875,-1.887 2.814,-4.514 2.814,-7.883 V 0 h -4.145 v 18.43 c 0,2.986 -0.623,5.205 -1.87,6.654 -1.246,1.449 -3.173,2.173 -5.778,2.173 -3.166,0 -5.497,-0.939 -6.99,-2.814 C 4.891,22.568 4.145,19.62 4.145,15.6 V 0 Z"
             style="fill:#333333;fill-opacity:1;fill-rule:nonzero;stroke:none"
             id="path22"
             inkscape:connector-curvature="0" /></g><g
           id="g24"
           transform="translate(289.0889,62.5576)"><path
             d="M 0,0 H 18.564 C 18.362,2.74 17.453,4.862 15.836,6.368 14.219,7.872 12.028,8.625 9.266,8.625 6.75,8.625 4.645,7.839 2.948,6.267 1.252,4.694 0.27,2.605 0,0 m -4.75,-3.739 c 0,4.896 1.342,8.848 4.026,11.859 2.684,3.01 6.194,4.514 10.529,4.514 4.133,0 7.445,-1.387 9.939,-4.16 2.492,-2.775 3.739,-6.475 3.739,-11.102 v -0.91 H -0.27 c 0.113,-3.863 1.079,-6.895 2.899,-9.096 1.818,-2.202 4.256,-3.303 7.31,-3.303 2.202,0 4.133,0.596 5.795,1.787 1.662,1.19 3.043,2.987 4.145,5.39 l 3.807,-2.089 c -1.528,-3.032 -3.398,-5.261 -5.61,-6.687 -2.213,-1.426 -4.925,-2.14 -8.137,-2.14 -4.379,0 -7.922,1.466 -10.629,4.398 -2.707,2.929 -4.06,6.776 -4.06,11.539"
             style="fill:#333333;fill-opacity:1;fill-rule:nonzero;stroke:none"
             id="path26"
             inkscape:connector-curvature="0" /></g><g
           id="g28"
           transform="translate(319.5498,70.543)"><path
             d="M 0,0 V 3.537 H 5.56 V 15.801 H 9.568 V 3.537 h 6.065 V 0 H 9.568 V -26.348 H 5.56 L 5.56,0 Z"
             style="fill:#333333;fill-opacity:1;fill-rule:nonzero;stroke:none"
             id="path30"
             inkscape:connector-curvature="0" /></g></g></g><g
       id="g32"><g
         id="g34"
         clip-path="url(#clipPath38)"><g
           id="g40"
           transform="translate(7.0981,66.8027)"><path
             d="m 0,0 h 81.574 l 11.555,12.682 10.845,-11.953 96.58,0.664 c 20.639,-63.227 20.583,-63.375 20.639,-63.227 0.056,0.148 19.971,31.693 19.971,31.693 h 84.139"
             style="fill:none;stroke:#333333;stroke-width:1;stroke-linecap:butt;stroke-linejoin:miter;stroke-miterlimit:10;stroke-dasharray:none;stroke-opacity:1"
             id="path42"
             inkscape:connector-curvature="0" /></g></g></g><g
       id="g44"><g
         id="g46"><g
           id="g52"><g
             id="g54"><path
               d="m 328.629,36.795 c 0,-1.892 1.533,-3.426 3.426,-3.426 v 0 c 1.891,0 3.425,1.534 3.425,3.426 v 0 c 0,1.893 -1.534,3.426 -3.425,3.426 v 0 c -1.893,0 -3.426,-1.533 -3.426,-3.426"
               style="fill:url(#linearGradient60);stroke:none"
               id="path62"
               inkscape:connector-curvature="0" /></g></g></g></g><g
       id="g64"><g
         id="g66"
         clip-path="url(#clipPath70)"><g
           id="g72"
           transform="translate(231.3711,6.1025)"><path
             d="m 0,0 c 0,-1.893 -1.533,-3.427 -3.426,-3.427 -1.892,0 -3.428,1.534 -3.428,3.427 0,1.894 1.536,3.426 3.428,3.426 C -1.533,3.426 0,1.894 0,0"
             style="fill:#231f20;fill-opacity:1;fill-rule:nonzero;stroke:none"
             id="path74"
             inkscape:connector-curvature="0" /></g><g
           id="g76"
           transform="translate(210.7363,68.8926)"><path
             d="m 0,0 c 0,-1.893 -1.535,-3.427 -3.424,-3.427 -1.894,0 -3.429,1.534 -3.429,3.427 0,1.893 1.535,3.427 3.429,3.427 C -1.535,3.427 0,1.893 0,0"
             style="fill:#00b4e2;fill-opacity:1;fill-rule:nonzero;stroke:none"
             id="path78"
             inkscape:connector-curvature="0" /></g><g
           id="g80"
           transform="translate(102.7568,79.666)"><path
             d="m 0,0 c 0,-1.613 -1.31,-2.926 -2.926,-2.926 -1.616,0 -2.927,1.313 -2.927,2.926 0,1.618 1.311,2.929 2.927,2.929 C -1.31,2.929 0,1.618 0,0"
             style="fill:#00ccc2;fill-opacity:1;fill-rule:nonzero;stroke:none"
             id="path82"
             inkscape:connector-curvature="0" /></g></g></g><g
       id="g84"><g
         id="g86"><g
           id="g92"><g
             id="g94"><path
               d="m 3.326,66.935 c 0,-1.893 1.533,-3.426 3.426,-3.426 v 0 c 1.892,0 3.426,1.533 3.426,3.426 v 0 c 0,1.893 -1.534,3.426 -3.426,3.426 v 0 c -1.893,0 -3.426,-1.533 -3.426,-3.426"
               style="fill:url(#linearGradient100);stroke:none"
               id="path102"
               inkscape:connector-curvature="0" /></g></g></g></g><g
       id="g104"><g
         id="g106"><g
           id="g112"><g
             id="g114"><path
               d="M 7.096,147.151 V 88.409 h 5.336 v 26.442 h 6.199 c 6.789,0 11.752,1.299 14.891,3.898 v 0 c 3.14,2.598 4.71,6.682 4.71,12.252 v 0 c 0,2.832 -0.509,5.409 -1.529,7.734 v 0 c -1.02,2.325 -2.454,4.154 -4.304,5.491 v 0 c -1.475,1.041 -3.212,1.79 -5.21,2.244 v 0 c -1.998,0.453 -5.116,0.681 -9.353,0.681 v 0 z m 5.336,-4.614 h 3.652 c 4.279,0 7.315,-0.242 9.108,-0.723 v 0 c 1.792,-0.483 3.21,-1.314 4.252,-2.493 v 0 c 1.016,-1.152 1.779,-2.459 2.288,-3.919 v 0 c 0.507,-1.461 0.763,-3.062 0.763,-4.803 v 0 c 0,-4.126 -1.118,-7.014 -3.351,-8.662 v 0 c -2.234,-1.648 -6.587,-2.472 -13.06,-2.472 v 0 h -3.652 z"
               style="fill:url(#linearGradient130);stroke:none"
               id="path132"
               inkscape:connector-curvature="0" /></g></g></g></g><g
       id="g134"><g
         id="g136"><g
           id="g142"><g
             id="g144"><path
               d="M 51.076,150.602 V 88.409 h 4.936 v 18.578 c 0,4.788 0.889,8.299 2.668,10.532 v 0 c 1.778,2.233 4.554,3.351 8.326,3.351 v 0 c 3.102,0 5.396,-0.863 6.88,-2.588 v 0 c 1.485,-1.726 2.228,-4.368 2.228,-7.925 v 0 -21.948 h 4.935 v 24.155 c 0,4.012 -1.116,7.142 -3.35,9.389 v 0 c -2.233,2.247 -5.356,3.37 -9.369,3.37 v 0 c -2.729,0 -5.143,-0.569 -7.243,-1.704 v 0 c -2.1,-1.139 -3.871,-2.844 -5.316,-5.117 v 0 32.1 z"
               style="fill:url(#linearGradient160);stroke:none"
               id="path162"
               inkscape:connector-curvature="0" /></g></g></g></g><g
       id="g164"><g
         id="g166"><g
           id="g172"><g
             id="g174"><path
               d="m 98.909,119.915 c -3.076,-3.604 -4.614,-8.262 -4.614,-13.972 v 0 c 0,-5.739 1.558,-10.357 4.674,-13.853 v 0 c 3.115,-3.498 7.228,-5.245 12.338,-5.245 v 0 c 2.89,0 5.397,0.687 7.524,2.063 v 0 c 2.126,1.376 3.778,3.374 4.955,5.992 v 0 -6.491 h 4.936 v 35.59 h -4.936 v -6.571 c -1.204,2.591 -2.909,4.554 -5.116,5.891 v 0 c -2.206,1.336 -4.822,2.004 -7.844,2.004 v 0 c -4.87,0 -8.842,-1.802 -11.917,-5.408 m 3.993,-24.735 c -2.074,2.48 -3.111,6.015 -3.111,10.603 v 0 c 0,4.643 1.084,8.29 3.251,10.944 v 0 c 2.166,2.654 5.108,3.982 8.827,3.982 v 0 c 3.717,0 6.647,-1.248 8.787,-3.741 v 0 c 2.14,-2.494 3.21,-5.916 3.21,-10.264 v 0 c 0,-4.748 -1.077,-8.477 -3.23,-11.184 v 0 c -2.154,-2.708 -5.103,-4.061 -8.847,-4.061 v 0 c -3.852,0 -6.816,1.239 -8.887,3.721"
               style="fill:url(#linearGradient190);stroke:none"
               id="path192"
               inkscape:connector-curvature="0" /></g></g></g></g><g
       id="g194"><g
         id="g196"><g
           id="g202"><g
             id="g204"><path
               d="m 155.869,123.413 c -1.752,-1.272 -3.538,-3.434 -5.356,-6.485 v 0 7.071 h -4.935 v -35.59 h 4.935 v 17.538 c 0,4.156 1.05,7.629 3.149,10.419 v 0 c 2.1,2.788 4.635,4.183 7.604,4.183 v 0 c 0.534,0 1.09,-0.055 1.666,-0.16 v 0 c 0.574,-0.108 1.13,-0.242 1.665,-0.402 v 0 l 1.605,4.587 c -0.697,0.236 -1.399,0.42 -2.106,0.552 v 0 c -0.711,0.132 -1.413,0.197 -2.107,0.197 v 0 c -2.328,0 -4.368,-0.636 -6.12,-1.91"
               style="fill:url(#linearGradient220);stroke:none"
               id="path222"
               inkscape:connector-curvature="0" /></g></g></g></g><g
       id="g224"><g
         id="g226"><g
           id="g232"><g
             id="g234"><path
               d="m 207.437,123.596 c -2.058,-1.152 -3.796,-2.892 -5.21,-5.221 v 0 c -0.992,2.276 -2.409,4.004 -4.245,5.182 v 0 c -1.838,1.177 -4.056,1.766 -6.658,1.766 v 0 c -2.516,0 -4.734,-0.582 -6.66,-1.746 v 0 c -1.926,-1.165 -3.479,-2.858 -4.655,-5.081 v 0 5.503 h -4.935 v -35.59 h 4.935 v 18.785 c 0,4.772 0.815,8.285 2.448,10.538 v 0 c 1.631,2.252 4.185,3.378 7.663,3.378 v 0 c 2.862,0 4.976,-0.845 6.34,-2.533 v 0 c 1.364,-1.69 2.046,-4.359 2.046,-8.005 v 0 -22.163 h 4.935 v 18.785 c 0,4.825 0.792,8.352 2.381,10.578 v 0 c 1.59,2.226 4.078,3.338 7.468,3.338 v 0 c 2.828,0 4.957,-0.885 6.386,-2.655 v 0 c 1.429,-1.769 2.142,-4.397 2.142,-7.883 v 0 -22.163 h 4.936 v 24.075 c 0,3.985 -1.084,7.121 -3.246,9.408 v 0 c -2.166,2.287 -5.13,3.431 -8.896,3.431 v 0 c -2.726,0 -5.118,-0.576 -7.175,-1.727"
               style="fill:url(#linearGradient250);stroke:none"
               id="path252"
               inkscape:connector-curvature="0" /></g></g></g></g><g
       id="g254"><g
         id="g256"><g
           id="g262"><g
             id="g264"><path
               d="m 244.933,119.915 c -3.077,-3.604 -4.614,-8.262 -4.614,-13.972 v 0 c 0,-5.739 1.557,-10.357 4.675,-13.853 v 0 c 3.115,-3.498 7.228,-5.245 12.338,-5.245 v 0 c 2.889,0 5.397,0.687 7.524,2.063 v 0 c 2.126,1.376 3.777,3.374 4.954,5.992 v 0 -6.491 h 4.936 v 35.59 h -4.936 v -6.571 c -1.202,2.591 -2.909,4.554 -5.115,5.891 v 0 c -2.206,1.336 -4.823,2.004 -7.844,2.004 v 0 c -4.87,0 -8.842,-1.802 -11.918,-5.408 m 3.993,-24.735 c -2.074,2.48 -3.11,6.015 -3.11,10.603 v 0 c 0,4.643 1.084,8.29 3.25,10.944 v 0 c 2.167,2.654 5.108,3.982 8.827,3.982 v 0 c 3.718,0 6.647,-1.248 8.788,-3.741 v 0 c 2.138,-2.494 3.209,-5.916 3.209,-10.264 v 0 c 0,-4.748 -1.076,-8.477 -3.229,-11.184 v 0 c -2.155,-2.708 -5.103,-4.061 -8.848,-4.061 v 0 c -3.851,0 -6.814,1.239 -8.887,3.721"
               style="fill:url(#linearGradient280);stroke:none"
               id="path282"
               inkscape:connector-curvature="0" /></g></g></g></g></g></svg>