<svg height="512pt" viewBox="0 -19 512 512" width="512pt" xmlns="http://www.w3.org/2000/svg" xmlns:xlink="http://www.w3.org/1999/xlink"><linearGradient id="a" gradientUnits="userSpaceOnUse" x1="256" x2="256" y1="-.0001" y2="473.9461"><stop offset="0" stop-color="#2af598"/><stop offset="1" stop-color="#009efd"/></linearGradient><path d="m512 375.972656v-40h-37.566406c-2.03125-8.191406-5.265625-15.914062-9.527344-22.953125l26.578125-26.578125-28.285156-28.28125-26.574219 26.574219c-7.238281-4.378906-15.199219-7.667969-23.652344-9.683594v-37.050781h-40v37.371094c-7.933594 2.039062-15.414062 5.226562-22.253906 9.363281l-26.578125-26.574219-28.285156 28.285156 26.578125 26.574219c-4.261719 7.039063-7.496094 14.761719-9.527344 22.953125h-37.90625v40h37.90625c2.03125 8.191406 5.265625 15.914063 9.527344 22.953125l-26.578125 26.578125 28.285156 28.28125 26.578125-26.574218c6.839844 4.140624 14.320312 7.324218 22.253906 9.363281v37.375h40v-37.050781c8.453125-2.015626 16.414063-5.304688 23.652344-9.6875l26.574219 26.578124 28.285156-28.285156-26.574219-26.574218c4.257813-7.039063 7.492188-14.761719 9.523438-22.957032zm-161.539062-20c0-9.3125 2.972656-17.9375 8-25l10.210937-10.207031c7.0625-5.03125 15.6875-8 25-8 23.824219 0 43.207031 19.382813 43.207031 43.207031 0 23.824219-19.382812 43.210938-43.207031 43.210938s-43.210937-19.386719-43.210937-43.210938zm-160.554688-42.953125 26.578125-26.578125-28.285156-28.28125-26.574219 26.574219c-7.238281-4.378906-15.199219-7.667969-23.652344-9.683594v-37.050781h-40v37.371094c-7.933594 2.039062-15.414062 5.226562-22.253906 9.363281l-26.578125-26.574219-28.285156 28.28125 26.578125 26.578125c-4.261719 7.039063-7.496094 14.757813-9.527344 22.953125h-37.90625v40h37.90625c2.03125 8.191406 5.265625 15.914063 9.527344 22.953125l-26.578125 26.574219 28.285156 28.285156 26.578125-26.574218c6.839844 4.140624 14.320312 7.324218 22.253906 9.363281v37.371093h40v-37.046874c8.453125-2.015626 16.414063-5.304688 23.652344-9.6875l26.574219 26.574218 28.285156-28.28125-26.574219-26.578125c4.257813-7.039062 7.492188-14.761719 9.523438-22.953125h37.566406v-40h-37.566406c-2.03125-8.191406-5.265625-15.914062-9.527344-22.953125zm-114.445312 42.953125c0-9.3125 2.972656-17.9375 8-25l10.210937-10.207031c7.0625-5.03125 15.6875-8 25-8 23.824219 0 43.207031 19.382813 43.207031 43.207031 0 23.824219-19.382812 43.210938-43.207031 43.210938s-43.210937-19.386719-43.210937-43.210938zm223.164062-166.761718 26.574219 26.574218 28.285156-28.28125-26.578125-26.578125c4.261719-7.039062 7.496094-14.761719 9.527344-22.953125h37.566406v-40h-37.566406c-2.03125-8.195312-5.265625-15.914062-9.527344-22.953125l26.578125-26.578125-28.285156-28.28125-26.574219 26.574219c-7.238281-4.378906-15.199219-7.667969-23.652344-9.683594v-37.050781h-40v37.371094c-7.933594 2.039062-15.414062 5.226562-22.253906 9.363281l-26.578125-26.574219-28.285156 28.28125 26.578125 26.578125c-4.261719 7.039063-7.496094 14.757813-9.527344 22.953125h-37.90625v40h37.90625c2.03125 8.191406 5.265625 15.914063 9.527344 22.953125l-26.578125 26.574219 28.285156 28.285156 26.578125-26.574218c6.839844 4.140624 14.320312 7.324218 22.253906 9.363281v37.371093h40v-37.046874c8.453125-2.015626 16.414063-5.308594 23.652344-9.6875zm-86.164062-71.238282c0-9.3125 2.972656-17.9375 8-25l10.210937-10.207031c7.0625-5.03125 15.6875-8 25-8 23.824219 0 43.207031 19.382813 43.207031 43.207031 0 23.824219-19.382812 43.210938-43.207031 43.210938s-43.210937-19.386719-43.210937-43.210938zm0 0" fill="url(#a)"/></svg>